<svg id="Layer_1" data-name="Layer 1" xmlns="http://www.w3.org/2000/svg" viewBox="0 0 73.01 49">
  <defs>
    <style>.cls-1{fill:red;}</style>
  </defs>
  <path class="cls-1" d="M50.38,12.52l-3.45,14-3.46-14h-10v5.17C32.27,13.16,27.82,12,23.85,12,19,11.9,13.62,14,13.44,20.41h6.7a3.2,3.2,0,0,1,3.45-3c2.05,0,3,.86,3.05,2.22-.07,1.19-.77,2-3,2H21.35v4.65h2c1.16,0,2.78.64,2.84,2.29.08,2-1.29,2.85-3,2.86-3-.11-3.79-2.43-3.79-4.42h-7c0,1.34,0,10.09,10.9,10,5.23.05,9-2.15,10.1-5.18V36.5h6.72V21.37L43.93,36.5h6l3.73-15.11V36.52h6.85v-24Zm-16.87,14a5.3,5.3,0,0,0-2.74-2.79,4.63,4.63,0,0,0,2.74-3.2Z"/>
</svg>